<svg width="15.714355" height="15.714233" viewBox="0 0 15.7144 15.7142" fill="none" xmlns="http://www.w3.org/2000/svg" xmlns:xlink="http://www.w3.org/1999/xlink">
	<desc>
			Created with Pixso.
	</desc>
	<defs>
		<clipPath id="clip211_3725">
			<rect id="SVG" rx="-0.357143" width="15.000000" height="15.000000" transform="translate(0.357143 0.357143)" fill="white" fill-opacity="0"/>
		</clipPath>
	</defs>
	<g clip-path="url(#clip211_3725)">
		<path id="Vector" d="M7.86 4.32C5.9 4.32 4.33 5.9 4.33 7.85C4.33 9.8 5.9 11.38 7.86 11.38C9.81 11.38 11.38 9.8 11.38 7.85C11.38 5.9 9.81 4.32 7.86 4.32ZM7.86 10.14C6.59 10.14 5.56 9.11 5.56 7.85C5.56 6.58 6.59 5.56 7.86 5.56C9.12 5.56 10.15 6.58 10.15 7.85C10.15 9.11 9.12 10.14 7.86 10.14ZM12.35 4.18C12.35 4.64 11.98 5 11.53 5C11.07 5 10.7 4.63 10.7 4.18C10.7 3.72 11.07 3.36 11.53 3.36C11.98 3.36 12.35 3.72 12.35 4.18ZM14.68 5.01C14.63 3.91 14.38 2.94 13.57 2.13C12.77 1.33 11.79 1.08 10.69 1.02C9.56 0.96 6.15 0.96 5.02 1.02C3.92 1.07 2.94 1.32 2.13 2.13C1.33 2.93 1.08 3.91 1.02 5.01C0.96 6.15 0.96 9.55 1.02 10.68C1.08 11.79 1.33 12.76 2.13 13.57C2.94 14.37 3.91 14.62 5.02 14.68C6.15 14.74 9.56 14.74 10.69 14.68C11.79 14.63 12.77 14.37 13.57 13.57C14.38 12.76 14.63 11.79 14.68 10.68C14.75 9.55 14.75 6.15 14.68 5.01ZM13.22 11.9C12.98 12.5 12.51 12.97 11.91 13.21C11 13.57 8.86 13.49 7.86 13.49C6.86 13.49 4.7 13.57 3.8 13.21C3.2 12.97 2.74 12.51 2.49 11.9C2.13 11 2.22 8.85 2.22 7.85C2.22 6.85 2.14 4.7 2.49 3.79C2.73 3.19 3.2 2.73 3.8 2.49C4.71 2.13 6.86 2.21 7.86 2.21C8.86 2.21 11.01 2.13 11.91 2.49C12.51 2.73 12.98 3.19 13.22 3.79C13.58 4.7 13.49 6.85 13.49 7.85C13.49 8.85 13.58 11 13.22 11.9Z" fill="#898989" fill-opacity="1.000000" fill-rule="nonzero"/>
	</g>
</svg>
